<svg xmlns="http://www.w3.org/2000/svg" style="display:none">
  <defs>
    <symbol id="alert-circle" viewBox="0 0 24 24"><circle cx="12" cy="12" r="10"/><line x1="12" y1="8" x2="12" y2="12"/><line x1="12" y1="16" x2="12.01" y2="16"/></symbol>
    <symbol id="bell" viewBox="0 0 24 24"><path d="M18 8A6 6 0 0 0 6 8c0 7-3 9-3 9h18s-3-2-3-9"/><path d="M13.73 21a2 2 0 0 1-3.46 0"/></symbol>
    <symbol id="check" viewBox="0 0 24 24"><polyline points="20 6 9 17 4 12"/></symbol>
    <symbol id="chevron-down" viewBox="0 0 24 24"><polyline points="6 9 12 15 18 9"/></symbol>
    <symbol id="chevron-up" viewBox="0 0 24 24"><polyline points="18 15 12 9 6 15"/></symbol>
    <symbol id="edit-2" viewBox="0 0 24 24"><path d="M17 3a2.828 2.828 0 1 1 4 4L7.5 20.5 2 22l1.5-5.5L17 3z"/></symbol>
    <symbol id="file-text" viewBox="0 0 24 24"><path d="M14 2H6a2 2 0 0 0-2 2v16a2 2 0 0 0 2 2h12a2 2 0 0 0 2-2V8z"/><polyline points="14 2 14 8 20 8"/><line x1="16" y1="13" x2="8" y2="13"/><line x1="16" y1="17" x2="8" y2="17"/><polyline points="10 9 9 9 8 9"/></symbol>
    <symbol id="graph" viewBox="0 0 24 24"><circle cx="6" cy="6" r="2"/><circle cx="18" cy="6" r="2"/><circle cx="12" cy="18" r="2"/><line x1="7.5" y1="7.5" x2="10.5" y2="16.5"/><line x1="16.5" y1="7.5" x2="13.5" y2="16.5"/><line x1="8" y1="6" x2="16" y2="6"/></symbol>
    <symbol id="home" viewBox="0 0 24 24"><path d="M3 12l9-9 9 9"/><path d="M5 10v10h14V10"/><path d="M9 20v-6h6v6"/></symbol>
    <symbol id="info" viewBox="0 0 24 24"><circle cx="12" cy="12" r="10"/><line x1="12" y1="16" x2="12" y2="12"/><line x1="12" y1="8" x2="12.01" y2="8"/></symbol>
    <symbol id="message-circle" viewBox="0 0 24 24"><path d="M21 11.5a8.38 8.38 0 0 1-.9 3.8 8.5 8.5 0 0 1-7.6 4.7 8.38 8.38 0 0 1-3.8-.9L3 21l1.9-5.7a8.38 8.38 0 0 1-.9-3.8 8.5 8.5 0 0 1 4.7-7.6 8.38 8.38 0 0 1 3.8-.9h.5a8.48 8.48 0 0 1 8 8v.5z"/></symbol>
    <symbol id="moon" viewBox="0 0 24 24"><path d="M21 12.79A9 9 0 1 1 11.21 3 7 7 0 0 0 21 12.79z"/></symbol>
    <symbol id="plus" viewBox="0 0 24 24"><line x1="12" y1="5" x2="12" y2="19"/><line x1="5" y1="12" x2="19" y2="12"/></symbol>
    <symbol id="search" viewBox="0 0 24 24"><circle cx="11" cy="11" r="8"/><line x1="21" y1="21" x2="16.65" y2="16.65"/></symbol>
    <symbol id="shield" viewBox="0 0 24 24"><path d="M12 22s8-4 8-10V5l-8-3-8 3v7c0 6 8 10 8 10z"/></symbol>
    <symbol id="sun" viewBox="0 0 24 24"><circle cx="12" cy="12" r="5"/><line x1="12" y1="1" x2="12" y2="3"/><line x1="12" y1="21" x2="12" y2="23"/><line x1="4.22" y1="4.22" x2="5.64" y2="5.64"/><line x1="18.36" y1="18.36" x2="19.78" y2="19.78"/><line x1="1" y1="12" x2="3" y2="12"/><line x1="21" y1="12" x2="23" y2="12"/><line x1="4.22" y1="19.78" x2="5.64" y2="18.36"/><line x1="18.36" y1="5.64" x2="19.78" y2="4.22"/></symbol>
    <symbol id="trash-2" viewBox="0 0 24 24"><polyline points="3 6 5 6 21 6"/><path d="M19 6v14a2 2 0 0 1-2 2H7a2 2 0 0 1-2-2V6m3 0V4a2 2 0 0 1 2-2h4a2 2 0 0 1 2 2v2"/><line x1="10" y1="11" x2="10" y2="17"/><line x1="14" y1="11" x2="14" y2="17"/></symbol>
    <symbol id="users" viewBox="0 0 24 24"><path d="M17 21v-2a4 4 0 0 0-4-4H5a4 4 0 0 0-4 4v2"/><circle cx="9" cy="7" r="4"/><path d="M23 21v-2a4 4 0 0 0-3-3.87"/><path d="M16 3.13a4 4 0 0 1 0 7.75"/></symbol>
    <symbol id="x" viewBox="0 0 24 24"><line x1="18" y1="6" x2="6" y2="18"/><line x1="6" y1="6" x2="18" y2="18"/></symbol>
  </defs>
</svg>
